<?xml version="1.0" encoding="UTF-8"?>
<!-- Created with Inkscape (http://www.inkscape.org/) -->
<svg width="152.73mm" height="158.75mm" version="1.1" viewBox="0 0 152.73 158.75" xmlns="http://www.w3.org/2000/svg">
 <defs>
  <clipPath id="clipPath186">
   <rect x="16.669" y="42.069" width="167.22" height="178.86" stroke-width=".26458"/>
  </clipPath>
 </defs>
 <g transform="translate(-28.39 -61.134)" clip-path="url(#clipPath186)">
  <path d="m0 0"/>
  <path transform="scale(.26458)" d="m238.17 231.06a16.19 16.865 0 0 0-16.189 16.863 16.19 16.865 0 0 0 5.9082 13.018c-3.9994 20.16-7.3644 40.426-10.418 60.754-5.1623 35.989-10.665 71.927-15.803 107.92-2.2919 15.3-4.3248 30.633-6.0762 45.998-0.49707 2.0976-0.65037 4.1505-2.8672 3.2695-0.30074 2.6344-0.95494 6.8979-1.9941 9.6465-0.0367 1.3171-0.27873 2.7769-0.80274 4.3809-0.76722 2.3486-3.212 11.973-7.6582 13.779-0.16169 0.23093-0.32625 0.46028-0.48437 0.69336-0.0532 0.0707-0.10481 0.14265-0.15625 0.21484v2e-3c0.21301 2.0329-0.46691 3.2783-1.4473 4.3848-0.13077 1.3247-0.27923 2.6466-0.40039 3.9727-1.4019 13.908-2.3744 27.861-4.3027 41.709-1.319 8.1923-2.2797 16.466-3.9883 24.59-0.83312 4.3711-1.8727 8.6816-2.9043 13.006-1.5642 3.5811-1.8022 7.5868-3.1016 11.223-1.0174 2.7015-1.1343 5.6088-1.2832 8.4609-0.0648 1.9166-0.0421 1.0862-0.0781 2.8633-1.248 6.3077-2.5874 12.597-3.9941 18.875-2.035 9.4308-3.9672 18.887-5.4688 28.418a57.34 60.039 0 0 0-47.359 59.084 57.34 60.039 0 0 0 57.34 60.039 57.34 60.039 0 0 0 57.34-60.039 57.34 60.039 0 0 0-42.541-58c0.55062-4.1921 1.0448-8.3868 1.4102-12.602 1.3173-9.9164 3.2533-19.738 5.4102-29.504 1.0951-4.9857 2.1398-9.9822 3.1992-14.975 5.734 16.142 13.411 31.461 22.025 46.24 5.9362 10.098 12.666 19.713 19.445 29.258 4.2327 6.4096 8.6995 12.692 12.648 19.283 2.4967 3.7743 4.7225 7.7194 7.0391 11.605 1.283 2.5764 3.0973 4.8411 4.2832 7.4648l3.6445-2.0625-2.9277 2.0723c0.24574 4e-3 0.49065 0.0149 0.73633 0.0195l-1.7676 1.2578c13.744 1.1836 27.259 4.1078 40.824 6.5078 17.605 2.9196 35.147 6.1177 52.482 10.363 12.054 2.8212 23.306 7.9087 34.346 13.371 10.037 5.0412 20.016 10.235 30.35 14.646 9.0306 3.9787 18.473 6.838 27.764 10.117 7.0221 2.4654 14.054 4.9217 21.189 7.043 6.5112 1.9846 13.233 3.006 20 3.5586 6.9037 0.35225 13.826 0.59573 20.719-0.0117 4.4567-0.48688 8.7342-1.8181 12.619-4.0703 27.221-15.781 19.246-10.014 30.039-17.984 1.7996-1.6607 3.779-3.1238 5.4219-4.9414 1.1067-0.1025 2.2131-0.20611 3.3184-0.31641a57.34 60.039 0 0 0-0.59375 8.5117 57.34 60.039 0 0 0 57.34 60.039 57.34 60.039 0 0 0 57.34-60.039 57.34 60.039 0 0 0-57.34-60.037 57.34 60.039 0 0 0-52.506 36.012c-3.0655 0.31351-6.1344 0.58233-9.2109 0.72266 0.7146-3.2276 1.5573-6.4218 2.6094-9.5547 7.7672-7.7978 15.683-15.45 23.908-22.766 1.8362-1.5477 3.6945-3.0706 5.5703-4.5703 0.20058-0.0571 0.40098-0.11482 0.60156-0.17187 0.54879-5e-3 0.66247-3e-3 1.9844 0l1.2617-0.91602c3.2309-0.91293 6.4646-1.8142 9.7129-2.6641 5.0017-1.3062 9.9717-2.7241 15.053-3.6934 3.0036-0.56206 6.0536-0.71846 9.1016-0.78321 2.0328-0.0229 4.0667-0.015 6.0996-6e-3 3.3348 0.58979 6.4695 1.9232 9.4375 3.5176 2.195 1.1387 4.3081 2.414 6.248 3.9492l15.1-9.4023c1.5754 0.28174 3.1439 0.59876 4.7168 0.89453l24.449-17.127c-1.8361-0.29443-3.6725-0.59379-5.4727-1.0703-3.9792-0.49523-7.786-1.5642-11.646-2.6152-4.776-1.1958-9.6509-1.9746-14.48-2.9199-6.9406-1.3615-14.057-2.1921-21.135-1.9902-6.6523 0.13418-13.299 0.39249-19.941 0.79492l-20.586 15.309c-1.7686 0.72524-3.553 1.426-5.3184 2.166-1.4708 0.55911-2.9428 1.112-4.4238 1.6348-14.619 5.3561-29.008 11.332-43.135 17.879-11.415 5.4167-22.735 11.066-33.854 17.084-0.0981-0.10095-0.19765-0.20087-0.29492-0.30273l-10.029 6.041c-3.02 1.7221-6.0222 3.4743-9.0039 5.2617-3.8631-0.48114-7.7208-0.99818-11.572-1.5742-10.665-1.5905-20.603-3.0133-31.264-4.8691-26.437-4.602-52.628-10.474-78.865-16.068-13.489-2.7975-24.412-5.191-37.916-7.5117-13.523-2.324-16.477-2.5094-29.51-4.0527-12.456-1.475-6.7447-0.8602-16.236-1.8262l-0.13086 0.0918c-1.0741-1.8078-2.2702-3.5401-3.2969-5.3848-2.3719-3.8633-4.6682-7.7809-7.2148-11.531-4.143-6.5665-8.8887-12.748-13.205-19.201-6.8478-9.407-13.428-19.022-19.707-28.816-9.1822-15.051-17.167-30.787-22.873-47.514-4.8273-14.47-9.2438-29.134-11.676-44.225 0.0982-3.7646 0.29877-7.5272 0.71679-11.271 0.48112-4.2733 0.90986-8.5441 1.2539-12.83 0.48019-4.3508 0.66418-8.7164 0.82812-13.084 0.25049-2.9358 0.50577-5.8708 0.7793-8.8047 0.0643-0.65393 0.14637-1.307 0.21289-1.9609-4.1e-4 -2e-3 -2e-3 -4e-3 -2e-3 -8e-3 -0.12973-0.65774-0.2358-1.158-0.34766-1.6934 1.7769-25.379 4.7351-50.642 8.3789-75.822 5.0393-36.023 10.565-71.975 15.91-107.95 2.7082-17.073 5.558-34.132 9.168-51.035a16.19 16.865 0 0 0 15.709-16.846 16.19 16.865 0 0 0-16.191-16.863zm-73.27 444.52a47.165 48.394 0 0 1 47.168 48.395 47.165 48.394 0 0 1-47.168 48.393 47.165 48.394 0 0 1-47.164-48.393 47.165 48.394 0 0 1 47.164-48.395zm1.0586 27.016a13.476 14.787 0 0 1 2.9863 9.2793 13.476 14.787 0 0 1-13.477 14.787 13.476 14.787 0 0 1-12.059-8.2012 22.235 23.525 0 0 0-1.418 7.5293 22.235 23.525 0 0 0 22.236 23.525 22.235 23.525 0 0 0 22.234-23.525 22.235 23.525 0 0 0-20.504-23.395zm444.18 19.668a47.165 48.394 0 0 1 47.164 48.393 47.165 48.394 0 0 1-47.164 48.395 47.165 48.394 0 0 1-47.164-48.395 47.165 48.394 0 0 1 47.164-48.393zm1.1875 27.023a13.476 14.787 0 0 1 2.3223 8.293 13.476 14.787 0 0 1-13.477 14.787 13.476 14.787 0 0 1-11.539-7.1641 22.235 23.525 0 0 0-1.4024 7.4707 22.235 23.525 0 0 0 22.232 23.523 22.235 23.525 0 0 0 22.236-23.523 22.235 23.525 0 0 0-20.373-23.387z"/>
  <path d="m0 0"/>
  <path transform="scale(.26458)" d="m238.17 231.06a16.19 16.865 0 0 0-16.189 16.863 16.19 16.865 0 0 0 5.9082 13.018c-3.9994 20.16-7.3644 40.426-10.418 60.754-5.1623 35.989-10.665 71.927-15.803 107.92-2.2919 15.3-4.3248 30.633-6.0762 45.998-0.49707 2.0976-0.65037 4.1505-2.8672 3.2695-0.30074 2.6344-0.95494 6.8979-1.9941 9.6465-0.0367 1.3171-0.27873 2.7769-0.80274 4.3809-0.76722 2.3486-3.212 11.973-7.6582 13.779-0.16169 0.23093-0.32625 0.46028-0.48437 0.69336-0.0532 0.0707-0.10481 0.14265-0.15625 0.21484v2e-3c0.21301 2.0329-0.46691 3.2783-1.4473 4.3848-0.13077 1.3247-0.27923 2.6466-0.40039 3.9727-1.4019 13.908-2.3744 27.861-4.3027 41.709-1.319 8.1923-2.2797 16.466-3.9883 24.59-0.83312 4.3711-1.8727 8.6816-2.9043 13.006-1.5642 3.5811-1.8022 7.5868-3.1016 11.223-1.0174 2.7015-1.1343 5.6088-1.2832 8.4609-0.0648 1.9166-0.0421 1.0862-0.0781 2.8633-1.248 6.3077-2.5874 12.597-3.9941 18.875-2.035 9.4308-3.9672 18.887-5.4688 28.418a57.34 60.039 0 0 0-47.359 59.084 57.34 60.039 0 0 0 57.34 60.039 57.34 60.039 0 0 0 57.34-60.039 57.34 60.039 0 0 0-42.541-58c0.55062-4.1921 1.0448-8.3868 1.4102-12.602 1.3173-9.9164 3.2533-19.738 5.4102-29.504 1.0951-4.9857 2.1398-9.9822 3.1992-14.975 5.734 16.142 13.411 31.461 22.025 46.24 5.9362 10.098 12.666 19.713 19.445 29.258 4.2327 6.4096 8.6995 12.692 12.648 19.283 2.4967 3.7743 4.7225 7.7194 7.0391 11.605 1.283 2.5764 3.0973 4.8411 4.2832 7.4648l3.6445-2.0625-2.9277 2.0723c0.24574 4e-3 0.49065 0.0149 0.73633 0.0195l-1.7676 1.2578c13.744 1.1836 27.259 4.1078 40.824 6.5078 17.605 2.9196 35.147 6.1177 52.482 10.363 12.054 2.8212 23.306 7.9087 34.346 13.371 10.037 5.0412 20.016 10.235 30.35 14.646 9.0306 3.9787 18.473 6.838 27.764 10.117 7.0221 2.4654 14.054 4.9217 21.189 7.043 6.5112 1.9846 13.233 3.006 20 3.5586 6.9037 0.35225 13.826 0.59573 20.719-0.0117 4.4567-0.48688 8.7342-1.8181 12.619-4.0703 27.221-15.781 19.246-10.014 30.039-17.984 1.7996-1.6607 3.779-3.1238 5.4219-4.9414 1.1067-0.1025 2.2131-0.20611 3.3184-0.31641a57.34 60.039 0 0 0-0.59375 8.5117 57.34 60.039 0 0 0 57.34 60.039 57.34 60.039 0 0 0 57.34-60.039 57.34 60.039 0 0 0-57.34-60.037 57.34 60.039 0 0 0-52.506 36.012c-3.0655 0.31351-6.1344 0.58233-9.2109 0.72266 0.7146-3.2276 1.5573-6.4218 2.6094-9.5547 7.7672-7.7978 15.683-15.45 23.908-22.766 1.8362-1.5477 3.6945-3.0706 5.5703-4.5703 0.20058-0.0571 0.40098-0.11482 0.60156-0.17187 0.54879-5e-3 0.66247-3e-3 1.9844 0l1.2617-0.91602c3.2309-0.91293 6.4646-1.8142 9.7129-2.6641 5.0017-1.3062 9.9717-2.7241 15.053-3.6934 3.0036-0.56206 6.0536-0.71846 9.1016-0.78321 2.0328-0.0229 4.0667-0.015 6.0996-6e-3 3.3348 0.58979 6.4695 1.9232 9.4375 3.5176 2.195 1.1387 4.3081 2.414 6.248 3.9492l15.1-9.4023c1.5754 0.28174 3.1439 0.59876 4.7168 0.89453l24.449-17.127c-1.8361-0.29443-3.6725-0.59379-5.4727-1.0703-3.9792-0.49523-7.786-1.5642-11.646-2.6152-4.776-1.1958-9.6509-1.9746-14.48-2.9199-6.9406-1.3615-14.057-2.1921-21.135-1.9902-6.6523 0.13418-13.299 0.39249-19.941 0.79492l-20.586 15.309c-1.7686 0.72524-3.553 1.426-5.3184 2.166-1.4708 0.55911-2.9428 1.112-4.4238 1.6348-14.619 5.3561-29.008 11.332-43.135 17.879-11.415 5.4167-22.735 11.066-33.854 17.084-0.0981-0.10095-0.19765-0.20087-0.29492-0.30273l-10.029 6.041c-3.02 1.7221-6.0222 3.4743-9.0039 5.2617-3.8631-0.48114-7.7208-0.99818-11.572-1.5742-10.665-1.5905-20.603-3.0133-31.264-4.8691-26.437-4.602-52.628-10.474-78.865-16.068-13.489-2.7975-24.412-5.191-37.916-7.5117-13.523-2.324-16.477-2.5094-29.51-4.0527-12.456-1.475-6.7447-0.8602-16.236-1.8262l-0.13086 0.0918c-1.0741-1.8078-2.2702-3.5401-3.2969-5.3848-2.3719-3.8633-4.6682-7.7809-7.2148-11.531-4.143-6.5665-8.8887-12.748-13.205-19.201-6.8478-9.407-13.428-19.022-19.707-28.816-9.1822-15.051-17.167-30.787-22.873-47.514-4.8273-14.47-9.2438-29.134-11.676-44.225 0.0982-3.7646 0.29877-7.5272 0.71679-11.271 0.48112-4.2733 0.90986-8.5441 1.2539-12.83 0.48019-4.3508 0.66418-8.7164 0.82812-13.084 0.25049-2.9358 0.50577-5.8708 0.7793-8.8047 0.0643-0.65393 0.14637-1.307 0.21289-1.9609-4.1e-4 -2e-3 -2e-3 -4e-3 -2e-3 -8e-3 -0.12973-0.65774-0.2358-1.158-0.34766-1.6934 1.7769-25.379 4.7351-50.642 8.3789-75.822 5.0393-36.023 10.565-71.975 15.91-107.95 2.7082-17.073 5.558-34.132 9.168-51.035a16.19 16.865 0 0 0 15.709-16.846 16.19 16.865 0 0 0-16.191-16.863zm-73.27 444.52a47.165 48.394 0 0 1 47.168 48.395 47.165 48.394 0 0 1-47.168 48.393 47.165 48.394 0 0 1-47.164-48.393 47.165 48.394 0 0 1 47.164-48.395zm1.0586 27.016a13.476 14.787 0 0 1 2.9863 9.2793 13.476 14.787 0 0 1-13.477 14.787 13.476 14.787 0 0 1-12.059-8.2012 22.235 23.525 0 0 0-1.418 7.5293 22.235 23.525 0 0 0 22.236 23.525 22.235 23.525 0 0 0 22.234-23.525 22.235 23.525 0 0 0-20.504-23.395zm444.18 19.668a47.165 48.394 0 0 1 47.164 48.393 47.165 48.394 0 0 1-47.164 48.395 47.165 48.394 0 0 1-47.164-48.395 47.165 48.394 0 0 1 47.164-48.393zm1.1875 27.023a13.476 14.787 0 0 1 2.3223 8.293 13.476 14.787 0 0 1-13.477 14.787 13.476 14.787 0 0 1-11.539-7.1641 22.235 23.525 0 0 0-1.4024 7.4707 22.235 23.525 0 0 0 22.232 23.523 22.235 23.525 0 0 0 22.236-23.523 22.235 23.525 0 0 0-20.373-23.387z"/>
 </g>
</svg>
